P2
57 61
255
 20 22 21 21 21 21 22 20 20 20 21 21
 22 20 22 21 22 21 23 22 22 22 22 22
 22 23 23 22 23 22 22 22 23 22 22 22
 22 22 22 23 22 22 22 22 20 22 23 22
 21 21 21 21 20 21 22 20 20 20 21 21
 21 21 21 21 21 21 22 21 21 21 22 20
 20 21 22 22 23 23 22 21 22 22 22 22
 23 22 22 22 22 22 22 21 22 22 22 23
 22 22 21 21 21 21 20 21 21 22 21 22
 21 21 21 21 21 22 21 21 21 22 20 20
 22 22 21 21 20 22 21 21 21 22 22 22
 22 22 21 21 22 22 22 22 23 23 23 23
 23 22 22 23 23 23 23 23 23 23 23 22
 22 22 22 22 22 20 20 21 21 22 21 20
 20 21 23 21 22 21 21 21 21 22 21 22
 22 22 22 22 22 22 22 22 22 23 23 24
 23 23 24 23 22 23 22 23 24 23 24 24
 23 23 24 24 23 23 22 22 22 22 22 22
 22 22 22 22 22 22 22 22 20 21 22 21
 20 22 22 22 22 22 21 20 20 20 20 20
 22 22 22 22 23 24 24 23 23 22 22 24
 23 24 24 24 24 24 24 23 24 24 24 24
 24 23 22 24 23 22 22 22 21 22 22 22
 22 22 22 22 21 22 20 22 22 20 19 21
 21 20 20 21 20 21 21 21 21 21 22 22
 22 22 22 23 22 23 24 24 24 24 24 24
 24 24 24 24 24 24 24 24 24 24 24 24
 24 24 23 23 23 22 21 22 23 22 21 21
 21 21 21 22 21 21 21 21 21 22 21 21
 21 21 21 22 21 22 22 22 22 22 22 23
 23 24 25 25 24 24 24 25 25 24 24 25
 25 26 25 25 25 25 25 25 24 24 23 23
 24 22 23 23 23 23 22 23 22 22 22 22
 21 22 21 21 22 21 20 22 22 22 20 22
 21 22 22 23 23 24 24 24 24 24 24 25
 25 24 27 27 24 27 27 26 26 26 25 24
 26 26 26 26 26 24 25 24 24 24 24 23
 24 22 22 21 22 22 22 22 21 21 21 21
 22 21 20 20 21 21 21 22 22 22 22 23
 23 24 24 24 25 26 25 27 26 27 27 27
 27 29 28 30 28 28 28 28 28 28 28 27
 27 26 27 26 26 24 25 24 24 23 22 22
 22 23 23 22 22 21 22 22 22 20 21 21
 21 21 21 21 21 22 23 23 24 23 24 26
 25 24 26 27 28 28 29 30 30 30 29 29
 31 30 30 30 30 30 30 30 29 29 30 28
 28 27 27 24 23 23 23 23 23 23 23 22
 22 22 22 21 22 21 21 20 21 22 20 22
 23 21 22 22 23 24 25 24 25 25 27 28
 29 29 30 30 31 32 33 34 34 34 33 32
 33 33 31 31 32 30 30 29 28 27 26 26
 26 26 24 24 22 22 23 23 23 22 21 21
 22 21 22 20 22 22 22 21 22 22 22 22
 23 24 25 25 26 27 29 29 29 30 32 33
 34 34 33 36 37 35 36 37 35 35 36 36
 35 33 33 33 32 31 30 31 28 26 26 26
 26 26 24 24 23 23 23 22 22 22 22 21
 22 21 21 22 21 22 22 23 23 24 24 26
 26 26 28 30 31 32 33 33 34 36 38 36
 38 38 40 40 40 40 39 39 38 39 37 35
 35 34 34 34 32 30 30 28 26 26 26 25
 25 24 24 23 23 22 22 22 22 22 22 21
 22 22 22 22 23 24 24 24 26 27 29 30
 31 34 36 37 38 39 40 41 40 42 43 44
 42 44 43 44 44 43 42 42 40 40 36 36
 35 34 33 31 30 28 27 26 24 25 25 24
 24 22 23 22 22 22 20 22 21 22 22 23
 23 23 24 24 26 26 27 30 30 34 36 38
 37 38 42 44 45 46 48 50 50 49 49 50
 48 46 44 44 44 43 43 40 40 38 36 32
 33 31 29 28 28 27 25 24 24 23 23 22
 22 22 21 21 22 22 22 21 22 22 24 25
 26 28 28 30 32 35 37 39 39 42 43 45
 48 48 50 52 52 52 54 52 51 51 51 50
 51 50 46 46 44 44 41 38 37 34 33 31
 29 27 28 27 25 24 24 22 23 22 22 21
 22 22 22 22 22 23 24 25 26 28 29 30
 33 35 39 42 43 47 50 53 55 55 58 59
 58 60 61 60 59 61 60 58 56 55 53 50
 50 49 46 44 42 40 37 34 32 31 30 28
 27 26 25 24 23 22 22 22 22 20 22 22
 23 23 23 24 25 26 28 30 32 34 38 43
 46 50 53 57 59 62 66 68 71 72 70 70
 71 71 70 69 66 64 63 61 58 58 55 52
 49 46 43 39 36 34 32 30 28 28 26 25
 24 24 23 22 23 22 22 22 22 23 23 23
 25 26 28 29 31 34 38 44 50 55 60 64
 68 73 78 81 86 89 90 86 86 86 87 85
 81 79 77 74 72 68 68 63 61 54 50 47
 44 40 37 34 32 29 27 26 26 24 23 22
 22 21 22 21 22 20 23 22 24 25 26 27
 30 32 35 40 48 56 67 77 88 95 100 104
 108 111 117 117 114 113 110 108 108 106 102 99
 98 92 86 86 78 72 66 58 52 48 44 38
 34 32 30 29 28 26 25 24 23 22 22 22
 22 22 23 23 23 24 26 26 29 30 32 40
 46 58 74 86 100 112 124 132 137 144 150 152
 154 154 152 150 148 146 142 136 136 132 125 115
 115 106 94 81 70 60 54 47 41 36 34 31
 31 28 27 25 24 24 22 22 22 22 22 22
 22 23 23 26 26 28 31 34 41 51 66 84
 100 112 126 138 146 154 158 164 170 174 174 175
 177 181 182 179 175 170 164 156 146 146 132 118
 99 82 68 57 48 44 40 36 33 31 29 26
 25 24 23 24 23 23 23 23 23 23 24 24
 25 27 29 32 35 42 52 68 84 101 112 123
 135 144 155 158 166 170 169 172 179 185 189 188
 183 182 178 168 163 154 154 143 123 103 87 71
 60 52 46 41 37 34 32 31 29 26 25 23
 23 23 23 22 22 22 22 23 24 25 27 28
 31 35 41 52 66 82 95 105 117 128 136 141
 148 155 159 164 168 174 180 184 182 178 176 173
 167 158 148 148 135 118 101 85 70 60 52 45
 40 37 35 32 28 26 26 25 24 24 22 22
 22 22 22 22 24 24 26 27 29 32 37 44
 52 63 75 88 98 110 123 132 140 144 152 157
 161 167 173 178 180 177 174 170 164 161 154 144
 144 129 114 101 85 72 62 51 46 42 38 36
 34 30 27 27 26 25 24 23 23 22 22 22
 23 23 25 27 29 31 33 39 43 52 64 77
 87 101 113 121 133 142 146 153 158 162 166 172
 177 179 178 175 170 166 163 158 147 147 130 117
 104 88 73 63 55 49 43 40 37 33 31 28
 27 26 24 23 23 23 22 22 22 22 22 25
 26 28 29 34 36 43 53 66 79 92 100 114
 128 138 146 153 158 164 168 170 173 176 179 179
 173 173 168 164 158 146 146 133 117 102 88 75
 64 57 50 45 40 36 35 32 30 27 25 24
 24 23 22 21 21 22 23 24 24 25 27 29
 32 37 43 55 66 81 94 110 123 133 142 149
 155 163 168 173 176 178 178 183 181 176 177 178
 171 162 151 151 137 123 108 92 78 66 58 50
 44 40 38 34 31 28 27 25 24 24 22 22
 22 22 23 22 24 25 25 27 31 33 38 44
 54 66 83 101 116 126 137 144 151 159 164 171
 175 175 177 182 182 186 184 181 178 173 168 156
 156 143 126 109 94 80 68 57 51 44 40 36
 34 30 29 27 25 24 24 23 22 20 22 22
 22 24 26 27 29 30 34 38 43 52 64 79
 95 109 124 134 146 154 161 170 175 177 180 181
 181 184 184 184 182 177 174 172 162 162 145 131
 113 97 82 70 60 53 46 42 38 33 31 30
 28 27 25 25 24 23 22 21 22 23 25 25
 26 27 30 34 39 44 50 60 72 87 106 118
 131 149 161 163 169 173 176 178 182 183 186 187
 187 187 183 179 174 161 161 146 130 116 100 84
 71 61 52 47 42 38 34 32 30 27 25 24
 24 24 23 21 22 23 24 23 25 27 29 32
 36 40 46 53 62 72 89 107 122 133 150 159
 166 170 174 176 179 182 182 187 188 188 186 181
 181 171 157 157 145 131 117 102 85 70 61 53
 46 42 38 34 30 28 26 25 25 24 23 23
 21 21 21 23 24 26 26 30 32 36 39 46
 54 66 76 90 107 124 138 148 161 169 174 177
 181 186 188 189 190 190 192 191 191 188 177 162
 162 148 133 117 103 86 70 61 51 45 42 37
 33 31 28 26 24 24 23 23 22 22 22 23
 23 24 25 27 29 33 37 41 49 58 70 85
 100 114 125 138 150 162 171 178 180 185 190 196
 199 198 198 200 200 197 193 179 168 168 154 136
 117 101 87 69 58 51 45 41 38 34 30 28
 27 26 24 24 23 22 22 22 23 23 23 24
 26 29 32 38 43 49 59 74 88 101 114 128
 137 154 165 173 178 187 188 191 195 198 204 206
 204 205 205 198 187 177 177 159 141 120 98 82
 69 61 52 45 40 35 33 30 28 26 24 24
 24 22 22 22 23 23 22 24 24 26 29 32
 36 43 49 59 72 86 102 116 125 138 152 160
 174 185 195 197 201 202 198 198 196 194 193 194
 189 181 169 169 154 135 117 97 78 65 58 49
 42 38 36 33 31 28 26 26 25 24 23 23
 22 21 21 22 23 24 26 28 30 36 41 49
 58 73 87 97 108 122 139 153 167 177 184 197
 200 197 197 202 198 192 194 196 192 189 180 166
 166 148 128 107 87 72 62 53 49 42 38 36
 32 30 29 26 25 24 23 23 22 22 22 22
 22 23 23 24 26 30 34 40 49 59 70 82
 94 108 124 143 159 167 174 179 190 198 195 194
 198 199 200 201 199 199 191 178 158 158 141 121
 101 82 69 60 52 45 42 37 34 31 28 26
 26 25 24 23 22 22 22 22 22 22 24 26
 26 28 30 34 39 47 56 68 79 86 99 112
 126 139 147 153 161 165 170 175 178 179 181 184
 183 185 184 179 170 154 154 139 122 102 82 68
 57 51 44 39 36 34 30 29 27 25 25 25
 23 22 23 21 21 22 23 23 24 25 27 29
 32 36 44 51 61 72 84 94 105 113 120 126
 135 145 154 160 170 171 171 176 179 180 182 183
 177 163 149 149 132 115 96 81 66 56 49 44
 38 34 32 30 29 27 26 24 24 23 23 23
 21 21 22 22 22 23 25 26 28 31 36 42
 50 61 73 85 96 104 110 116 123 129 134 144
 155 165 174 176 177 176 175 178 177 172 162 148
 148 133 116 97 82 66 55 47 41 38 34 31
 28 26 25 25 24 23 23 23 22 21 22 22
 22 23 23 24 25 27 30 35 41 49 62 73
 85 95 103 108 113 117 117 123 131 141 152 161
 169 171 170 172 171 165 162 153 144 144 129 111
 93 77 63 52 44 39 35 32 30 28 27 27
 24 23 23 23 22 22 21 21 21 23 23 24
 23 24 26 29 32 38 45 54 64 74 81 87
 91 91 89 93 100 103 110 118 128 136 143 145
 146 147 141 131 127 121 121 114 101 86 72 60
 50 43 37 34 31 29 27 25 25 25 23 23
 23 22 22 22 21 22 22 22 24 24 24 24
 26 29 33 38 46 50 55 62 67 70 71 73
 73 78 82 88 92 96 100 103 106 108 106 105
 103 98 94 94 86 78 68 60 52 44 38 35
 32 30 28 26 25 25 23 23 23 21 22 22
 22 22 22 22 23 23 23 24 26 27 28 30
 34 38 40 45 49 52 54 56 58 59 63 67
 69 72 74 75 77 78 76 76 74 74 72 68
 68 64 60 54 50 44 39 36 33 31 29 27
 26 24 24 23 23 22 22 22 22 21 22 22
 22 23 22 22 23 23 25 26 28 30 33 35
 38 40 42 44 46 49 49 52 54 56 59 60
 61 62 60 60 60 58 58 56 54 54 51 47
 46 41 39 36 33 31 29 26 26 25 25 23
 24 23 23 22 22 21 21 22 21 22 23 22
 22 23 25 23 25 27 28 29 32 34 36 37
 39 41 43 44 45 47 48 47 48 49 50 52
 51 49 48 46 45 43 43 42 40 38 37 35
 33 31 29 28 26 25 24 24 23 21 23 22
 21 21 20 22 21 21 21 22 22 22 23 23
 25 25 27 26 28 30 31 31 32 35 36 37
 39 38 40 40 41 41 42 42 42 42 42 40
 41 42 39 39 38 36 35 33 31 30 28 27
 26 26 25 23 23 22 22 22 23 21 21 21
 20 20 22 22 21 22 23 23 24 23 24 24
 24 25 26 27 28 28 30 32 33 32 34 34
 34 36 36 36 36 36 37 38 37 36 34 34
 34 34 33 32 31 29 27 26 25 24 24 23
 24 23 22 22 22 22 21 21 22 22 21 22
 22 21 20 21 21 22 22 23 24 24 24 26
 26 26 27 27 28 30 30 30 30 32 32 33
 34 33 33 32 32 32 32 32 31 31 31 29
 28 28 27 26 26 25 24 23 24 23 21 21
 22 21 21 21 21 21 20 20 22 21 22 22
 22 22 22 22 22 23 23 23 24 26 25 27
 26 27 27 26 28 28 29 30 30 28 30 30
 30 31 30 30 28 28 28 29 26 27 25 25
 24 24 23 23 22 22 22 22 22 22 22 21
 21 21 20 20 20 22 21 22 22 22 22 22
 22 22 23 23 23 24 26 25 27 26 27 27
 26 28 28 29 30 30 28 30 30 30 31 30
 30 28 28 28 29 26 27 25 25 24 24 23
 23 22 22 22 22 22 22 22 21 21 21 20
 22 22 22 21 22 22 20 22 22 22 22 23
 22 23 23 23 24 24 24 25 24 26 27 26
 28 29 27 27 28 28 28 27 27 27 26 25
 25 26 26 25 24 24 24 24 23 22 22 22
 22 22 22 22 22 21 21 21 21 20 22 22
 21 21 22 22 22 22 22 22 22 22 22 22
 24 24 23 23 24 25 25 26 27 26 25 25
 25 25 26 26 26 25 26 26 26 26 26 25
 24 24 24 24 22 22 22 23 22 22 21 21
 22 22 22 21 20 20 21 22 21 21 21 21
 21 22 22 22 22 22 22 23 23 23 23 23
 23 23 25 25 24 24 25 25 24 24 26 25
 25 24 26 24 24 25 25 25 25 24 24 23
 23 22 22 23 23 22 23 23 21 22 22 22
 21 21 20 20 22 22 21 21 21 22 21 21
 21 22 22 21 22 22 23 22 22 22 23 22
 24 25 24 24 24 24 24 24 24 23 24 24
 23 24 22 22 22 22 22 23 22 22 22 22
 22 22 22 22 22 22 21 22 22 22 21 21
 21 21 20 22 22 22 21 22 20 22 21 20
 22 24 22 23 22 22 22 22 22 24 22 24
 24 22 22 24 23 23 23 24 24 23 24 24
 24 23 23 23 22 22 22 22 22 21 21 22
 21 20 20 20 20 21 21 21 20 22 22 21
 21 21 21 21 21 21 22 22 22 21 21 22
 22 23 23 23 22 22 22 23 23 24 23 24
 25 23 24 23 22 23 23 23 23 23 23 23
 23 22 22 22 21 22 20 22 22 22 21 22
 22 22 22 21 21 21 21 22 20 20 20 22
 20 22 22 21 22 22 22 22 22 21 21 22
 22 22 22 24 22 23 23 22 23 22 23 23
 23 23 23 22 23 23 23 23 22 23 22 21
 21 21 20 21 21 21 22 20 22 22 21 21
 22 21 22 20 20 21 20 21 21 21 21 21
 21 21 21 22 22 22 22 22 22 23 22 22
 22 22 21 22 22 22 22 22 22 21 22 22
 22 23 22 22 22 23 23 21 21 21 22 21
 21 21 22 22 21 21 22 22 21 21 21 21
 21 21 21 21 21 21 21 21 21 22 22 22
 22 22 22 22 22 21 22 23 22 23 22 22
 22 22 22 21 22 21 22 22 22 22 22 23
 23 22 21 22 23 22 20 21 21 22 22 20
 20 21 21 21 20 20 21 21 22
