P2
50 47
255
 20 21 20 21 21 20 20 20 20 20 21 21
 21 22 21 20 21 21 20 20 22 21 20 21
 20 20 21 22 21 22 21 22 21 21 21 21
 20 21 22 22 20 21 21 21 21 22 20 21
 20 20 20 21 20 21 21 22 21 20 20 20
 21 21 20 20 21 22 20 22 21 20 20 20
 20 20 20 21 20 20 22 20 20 20 21 21
 20 20 21 20 20 20 20 20 20 20 20 20
 20 20 20 20 22 21 21 21 21 20 20 20
 21 21 20 20 22 21 21 20 21 21 22 20
 21 21 21 21 21 22 22 21 22 21 21 21
 21 21 21 21 21 21 21 20 20 21 20 20
 21 21 21 22 22 21 20 21 21 21 21 21
 21 21 21 20 20 21 21 21 21 21 21 22
 21 22 22 21 22 21 22 21 22 22 23 22
 22 22 21 21 22 21 21 22 23 22 21 21
 22 20 21 20 21 21 21 20 21 20 21 20
 20 21 21 21 21 21 21 21 21 21 21 21
 21 22 21 22 23 22 22 22 22 22 22 22
 22 22 22 22 22 21 22 21 22 21 21 21
 21 20 20 21 21 22 21 21 21 21 20 21
 21 20 21 20 21 20 21 21 21 22 22 20
 22 21 20 21 21 22 21 22 21 21 21 21
 21 22 22 22 22 23 21 22 21 21 20 21
 20 20 20 21 21 20 20 20 20 21 21 21
 21 21 20 20 20 20 21 21 21 21 21 21
 21 21 22 21 22 21 22 22 23 21 23 22
 22 22 22 21 22 22 22 22 22 22 22 22
 22 22 22 21 21 20 20 20 20 20 20 20
 20 21 20 21 21 21 21 21 20 20 21 21
 22 21 21 21 23 22 22 23 22 22 22 23
 23 23 23 24 23 22 22 23 23 23 22 22
 22 22 22 22 21 21 21 22 21 22 21 21
 22 21 21 20 22 21 21 21 20 20 21 21
 21 21 22 21 21 21 21 21 22 22 23 22
 23 23 23 23 24 24 24 24 23 23 23 23
 23 22 22 22 22 22 22 21 22 22 22 21
 21 21 21 21 20 20 21 21 21 21 21 21
 21 21 21 21 21 21 21 22 22 22 22 22
 22 23 23 24 24 25 25 25 25 25 25 25
 24 24 23 23 23 23 22 22 21 22 22 21
 20 20 21 21 21 21 21 20 20 20 21 21
 21 20 21 21 20 21 21 22 21 21 22 23
 23 23 23 24 23 25 25 25 27 27 26 27
 27 27 26 25 25 24 23 23 22 22 22 22
 21 21 20 22 21 20 21 20 20 20 20 20
 21 21 22 20 20 20 21 21 21 21 22 22
 23 23 22 22 24 25 26 26 27 27 29 28
 28 28 28 27 27 26 26 24 24 22 23 22
 24 22 23 22 23 22 22 21 21 21 21 20
 22 21 21 21 22 22 22 21 21 21 21 22
 22 23 23 24 24 26 26 26 28 30 30 31
 30 32 32 32 31 29 29 28 28 27 26 25
 24 24 22 23 22 22 21 21 21 21 21 21
 21 21 21 21 20 20 20 21 21 21 20 22
 22 23 22 23 24 26 25 26 26 28 30 31
 32 32 32 34 34 33 32 30 30 31 29 27
 26 25 25 23 23 22 22 22 22 21 21 20
 21 21 21 20 20 20 20 20 20 21 22 21
 22 22 22 22 23 22 25 26 26 27 28 29
 33 33 35 36 36 37 38 36 34 34 34 31
 30 29 28 26 24 24 23 23 22 21 22 21
 21 21 21 21 21 21 22 21 22 21 21 21
 20 20 20 22 22 23 23 24 25 26 27 28
 30 34 36 38 38 40 42 42 40 40 38 39
 37 35 31 31 29 27 25 25 24 24 23 23
 22 22 21 22 21 22 21 21 21 21 22 22
 23 22 21 21 22 22 22 24 24 24 26 28
 31 32 32 35 39 42 45 46 46 46 46 43
 43 39 38 35 34 31 29 28 26 25 25 22
 23 23 22 21 21 21 21 21 22 20 21 21
 21 21 21 21 22 22 21 22 22 24 24 26
 28 30 31 31 33 35 42 46 48 50 52 52
 50 49 46 42 39 36 34 32 32 30 28 27
 26 25 24 22 22 22 22 23 21 22 21 22
 20 21 21 21 20 21 21 20 22 22 23 24
 26 27 29 31 33 34 36 39 46 53 55 56
 58 58 58 54 51 46 44 43 38 34 32 31
 30 27 25 25 23 22 22 23 22 21 22 22
 20 20 22 21 21 20 23 21 22 22 22 22
 23 24 26 28 30 33 36 36 38 43 50 58
 65 67 68 69 68 63 60 54 50 45 41 36
 33 31 30 27 26 25 24 23 22 22 21 21
 22 20 20 20 20 21 20 22 21 22 21 22
 23 23 23 25 26 29 33 36 38 41 44 50
 60 72 80 87 89 90 86 83 75 66 59 51
 44 40 37 33 30 29 26 25 25 23 22 22
 22 22 22 22 21 22 20 21 20 21 21 22
 22 22 22 23 24 26 28 30 33 37 42 47
 54 67 84 103 120 127 125 125 121 120 106 90
 73 58 49 42 37 34 32 29 27 25 24 23
 22 21 21 21 21 20 21 20 20 21 22 21
 22 21 21 22 23 23 25 26 27 31 35 40
 46 58 75 98 134 166 188 194 191 183 182 180
 166 132 97 74 57 45 39 34 33 30 26 24
 24 23 22 22 22 22 21 23 21 21 20 20
 20 21 21 22 21 21 21 22 25 26 27 30
 35 41 49 63 92 144 197 236 243 237 233 223
 215 208 190 154 109 75 57 46 41 36 32 29
 27 27 25 24 23 23 22 22 22 21 21 20
 20 21 20 20 20 20 20 22 22 22 22 25
 27 30 35 41 50 66 97 146 191 221 228 222
 208 201 188 177 159 127 93 67 53 45 39 35
 31 30 28 27 26 23 23 22 21 22 21 21
 21 21 20 20 20 21 21 21 21 21 22 22
 23 25 28 30 34 41 48 59 81 116 155 174
 183 177 162 146 134 123 110 90 74 60 49 43
 37 34 32 28 26 25 25 23 22 21 22 21
 21 21 21 21 22 20 20 21 21 20 21 21
 22 22 24 25 26 30 32 37 45 54 68 90
 115 130 139 132 125 117 105 95 85 73 61 53
 46 40 36 32 30 27 25 25 24 23 22 22
 22 22 21 21 21 21 20 20 20 21 20 20
 20 21 21 23 24 25 26 28 31 34 39 48
 56 67 83 96 99 96 94 91 81 76 70 62
 55 46 41 38 34 32 29 28 26 24 23 23
 23 22 21 22 21 21 21 21 21 21 21 20
 21 21 22 22 22 23 23 23 25 28 30 34
 37 42 48 57 65 68 72 72 72 70 66 62
 56 52 46 43 40 35 33 30 28 26 25 23
 22 22 22 22 22 22 21 22 21 21 20 21
 20 20 21 22 22 22 22 22 23 24 24 25
 27 31 33 36 40 46 48 52 57 58 58 55
 56 55 51 47 42 39 37 34 31 29 27 26
 24 23 23 22 21 21 21 22 20 20 21 21
 20 19 21 20 21 22 21 21 21 22 23 23
 24 25 27 28 31 32 36 40 43 46 50 49
 50 49 48 47 45 42 38 36 33 30 29 27
 26 25 23 23 22 21 20 21 21 22 22 22
 21 21 21 21 21 20 21 20 21 21 21 21
 22 23 23 24 26 27 28 30 32 37 38 39
 42 42 41 43 42 39 39 37 34 34 30 28
 27 26 26 25 24 23 22 22 22 22 22 21
 21 22 21 20 20 20 20 21 22 22 22 21
 21 22 22 23 22 24 24 25 26 28 30 32
 35 36 37 37 36 36 37 36 34 33 32 30
 29 26 26 25 25 23 23 23 22 21 21 22
 22 21 21 21 20 21 20 21 20 20 20 21
 21 22 22 21 22 20 21 23 24 24 24 26
 27 29 31 32 32 34 34 32 32 30 31 29
 30 28 26 26 25 24 23 24 22 24 22 22
 22 20 21 23 22 22 21 21 21 21 20 20
 20 20 20 20 21 22 22 22 22 22 22 23
 25 25 26 27 29 29 31 30 31 30 29 29
 29 28 27 26 26 25 25 23 23 23 22 21
 22 22 20 20 20 20 20 20 21 21 21 21
 20 20 20 20 21 22 21 21 22 22 22 22
 22 23 23 24 24 26 26 27 28 28 28 28
 28 28 27 25 25 24 23 23 23 22 22 22
 21 21 21 21 21 20 21 21 21 20 21 21
 20 22 21 21 20 20 20 21 21 22 22 22
 22 22 23 23 24 22 24 24 26 25 26 25
 26 25 26 27 26 25 25 25 24 24 23 23
 22 22 22 21 22 22 21 21 21 21 21 21
 21 20 21 21 20 20 21 21 22 21 21 22
 22 20 22 21 22 22 22 22 23 24 24 24
 25 25 25 25 26 25 25 24 24 24 23 23
 22 22 22 22 22 22 21 21 20 21 21 21
 21 21 22 21 20 20 21 20 20 20 21 21
 21 21 22 22 21 21 21 21 22 22 22 22
 23 23 23 24 24 25 24 23 23 23 24 23
 22 22 22 23 21 22 22 21 22 21 21 20
 21 21 20 20 20 20 21 21 21 21 20 20
 21 20 20 21 22 21 21 20 21 21 22 22
 23 22 23 23 22 22 24 23 23 24 22 22
 23 23 22 22 22 22 21 20 20 20 21 22
 20 21 21 21 21 20 21 21 20 21 21 21
 21 21 21 21 21 21 21 21 21 21 22 22
 23 22 23 23 22 23 23 22 23 23 23 23
 22 23 24 23 23 23 22 22 22 22 21 21
 21 22 21 21 21 21 21 21 21 21 21 21
 20 20 20 21 21 20 20 22 21 21 20 21
 21 22 21 21 22 22 22 23 23 22 23 23
 22 23 23 23 22 23 22 22 22 22 22 22
 22 22 21 21 20 20 21 21 21 21 20 21
 20 21 20 20 21 20 21 20 21 21 21 21
 20 20 20 21 21 21 22 22 22 21 22 22
 23 23 22 22 23 22 22 22 22 22 22 22
 21 21 21 21 21 21 21 21 21 20 21 20
 20 20 21 21 22 21 21 20 20 20 20 22
 21 22 22 21 21 20 20 20 22 21 22 22
 22 23 23 22 22 22 20 20 22 22 22 20
 21 21 20 22 20 22 21 20 20 21 20 20
 20 21 20 21 20 20 21 21 21 21 21 20
 20 21 21 21 21 21 20 21 21 21 21 22
 22 22 22 20 20 22 22 22 22 22 22 22
 23 22 22 23 21 21 22 21 22 20 20 21
 21 20 20 20 20 20 21 21 21 21 22 21
 21 22 21 21 21 21 21 20 21 21 21 21
 22 22 23 22 20 20 20 22 22 21 22 21
 22 22 22 21 22 22 22 21 21 21 21 22
 21 20 21 20 21 21 21 22 20 20 21 20
 20 20 20 20 21 21 21 20 21 21 22 22
 21 21 21 20 21 21 22 22 22 22 22 22
 22 22 22 21 21 22 21 21 21 20 20 21
 21 21 20 20 21 21 20 21 20 21
